<svg width="50" height="45" viewBox="0 0 50 45" fill="none" xmlns="http://www.w3.org/2000/svg">
<path opacity="0.6" d="M29.167 29.9998C29.167 33.3186 27.5628 36.3186 25.0003 38.3623C22.792 40.1623 19.8753 41.2498 16.667 41.2498C9.77116 41.2498 4.16699 36.2061 4.16699 29.9998C4.16699 24.8248 8.08366 20.4373 13.3753 19.1436C14.8128 22.4061 17.8962 24.9186 21.7087 25.8561C22.7503 26.1186 23.8545 26.2498 25.0003 26.2498C26.1462 26.2498 27.2503 26.1186 28.292 25.8561C28.8545 27.1311 29.167 28.5373 29.167 29.9998Z" fill="#1E638A"/>
<path d="M37.5 15C37.5 16.4625 37.1875 17.8687 36.625 19.1438C35.1875 22.4062 32.1042 24.9188 28.2917 25.8563C27.25 26.1187 26.1458 26.25 25 26.25C23.8542 26.25 22.75 26.1187 21.7083 25.8563C17.8958 24.9188 14.8125 22.4062 13.375 19.1438C12.8125 17.8687 12.5 16.4625 12.5 15C12.5 8.79375 18.1042 3.75 25 3.75C31.8958 3.75 37.5 8.79375 37.5 15Z" fill="#1E638A"/>
<path opacity="0.4" d="M45.8333 29.9998C45.8333 36.2061 40.2292 41.2498 33.3333 41.2498C30.125 41.2498 27.2083 40.1623 25 38.3623C27.5625 36.3186 29.1667 33.3186 29.1667 29.9998C29.1667 28.5373 28.8542 27.1311 28.2917 25.8561C32.1042 24.9186 35.1875 22.4061 36.625 19.1436C41.9167 20.4373 45.8333 24.8248 45.8333 29.9998Z" fill="#1E638A"/>
</svg>
